<?xml version="1.0" encoding="utf-8"?>
<!-- Generator: Adobe Illustrator 19.0.0, SVG Export Plug-In . SVG Version: 6.00 Build 0)  -->
<svg version="1.1" id="Layer_1" xmlns="http://www.w3.org/2000/svg" xmlns:xlink="http://www.w3.org/1999/xlink" x="0px" y="0px"
	 viewBox="92.7 285.4 500.4 223" style="enable-background:new 92.7 285.4 500.4 223;" xml:space="preserve">
<style type="text/css">
	.st0{fill:#44BE4C;}
	.st1{fill:#FFFFFF;}
	.st2{fill:#FCEE21;}
</style>
<g>
	<path class="st0" d="M309.5,384.7c-4,0.8-7.7,1.2-15.8,1.2c-11.7,0-25.1-6.3-25.1-29.3v-3.2c0-23.3,13.4-29.3,25.1-29.3
		c6,0,11.8,0.9,15.9,1.5c0.9,0.1,1.5,0.4,1.5,1.2v4.8c0,0.6-0.2,1-1.1,1c-0.1,0-0.2,0-0.3,0c-3.4-0.3-10.4-0.9-15.9-0.9
		c-9.3,0-16.5,5.4-16.5,21.5v3.2c0,15.9,7.2,21.5,16.5,21.5c5.4,0,12.2-0.5,15.7-0.8c0.1,0,0.3,0,0.4,0c1,0,1.5,0.5,1.5,1.5v3.9
		C311.4,384,310.6,384.5,309.5,384.7z"/>
	<path class="st0" d="M380.2,385.3h-5.6c-0.9,0-1.4-0.6-1.6-1.2l-6.2-18.8h-24.6l-6.1,18.8c-0.2,0.7-0.9,1.2-1.7,1.2h-5.6
		c-0.9,0-1.6-0.6-1.6-1.3c0-0.2,0-0.4,0.1-0.6l17.6-53.3c1.6-5,6.1-6.2,9.7-6.2c3.5,0,8,1.1,9.6,6.1l17.6,53.4
		c0.1,0.2,0.1,0.4,0.1,0.6C381.8,384.7,381.3,385.3,380.2,385.3z M356.4,331.8c-0.3-0.9-0.9-1.5-1.8-1.5c-1,0-1.6,0.6-1.9,1.5
		l-8.5,26.5h20.7L356.4,331.8z"/>
	<path class="st0" d="M455.1,385.3h-5.2c-0.9,0-1.7-0.9-1.7-1.9v-56.8c0-0.9,0.7-1.8,1.7-1.8h5.2c0.9,0,1.7,0.8,1.7,1.8v56.8
		C456.8,384.4,456.1,385.3,455.1,385.3z"/>
	<path class="st0" d="M522.1,385.3h-5.9c-1.5,0-2.6-0.6-3-1.5l-29.3-45.7c-0.1-0.2-0.2-0.3-0.3-0.3c-0.1,0-0.1,0.1-0.1,0.3v45.4
		c0,0.9-0.8,1.8-1.7,1.8h-4.9c-0.9,0-1.7-0.2-1.7-1.1v-56.7c0-1.5,1.2-2.7,2.8-2.7h5.2c2.7,0,3.1,0.5,3.9,1.9l29.1,45.4l0.2,0.3
		c0.1,0,0.1-0.2,0.1-0.3v-45.5c0-0.9,0.8-1.8,1.7-1.8h5c1,0,1.7,0.9,1.7,1.8v55.9C524.8,384.1,523.6,385.3,522.1,385.3z"/>
	<path class="st0" d="M567.5,386c-14.9,0-25.7-8.7-25.7-29.8V354c0-21.1,10.8-29.8,25.7-29.8s25.6,8.7,25.6,29.8v2.2
		C593.1,377.2,582.4,386,567.5,386z M584.4,354c0-15.9-6.5-22-16.9-22c-10.3,0-17,6.1-17,22v2.2c0,15.9,6.5,22,17,22
		c10.3,0,16.9-6.1,16.9-22V354z"/>
	<g>
		<path class="st1" d="M251.4,375.8c-8-2.4-29.9-5.6-49.5-5.6c-24.1,0-59.4,8.3-59.4,61.4V447c0,52.2,34.6,61.4,57.6,61.4
			c17,0,40.2-2.7,51.3-5.1c3.3-0.7,3.8-0.9,3.8-4v-63.5c0-2.1-1.7-3.8-3.8-3.8h-12.6h-17.1h-15.6c-2,0-3.6,1.5-3.6,3.4v15.9
			c0,1.9,1.6,3.4,3.6,3.4H217c0.6,0,1.1,0.5,1.1,1.1v14.1c0,0.8-0.6,1.5-1.4,1.5c-4.2,0.3-15.1,0.4-16.5,0.4
			c-5.4,0-14.3-0.7-14.3-24.4v-15.8c0-19.9,11.1-24.3,34.3-23.7c11.2,0.3,26.6,1.1,32.1,1.8c2.5,0.4,3.1-0.5,3.1-3.3v-26.6
			C255.2,377.4,255.1,376.9,251.4,375.8z"/>
		<path class="st1" d="M366.3,395.1h-29.2c-1.6,0-3,1.3-3,3v65.5c0,11.8-7.2,14.4-15,14.4s-15-2.5-15-14.4v-65.5c0-1.6-1.4-3-3-3
			h-29.2c-1.6,0-3.1,1.3-3.1,3v65.5c0,38.5,27.1,44.4,50.4,44.4c23.2,0,50.4-5.8,50.4-44.4v-65.5C369.5,396.4,368,395.1,366.3,395.1
			z"/>
		<path class="st1" d="M588.7,395.1h-29.2c-1.6,0-3,1.3-3,3v65.5c0,11.8-7.2,14.4-15,14.4s-15-2.5-15-14.4v-65.5c0-1.6-1.4-3-3-3
			h-29.2c-1.6,0-3.1,1.3-3.1,3v65.5c0,38.5,27.1,44.4,50.4,44.4c23.2,0,50.4-5.8,50.4-44.4v-65.5
			C591.8,396.4,590.3,395.1,588.7,395.1z"/>
		<path class="st1" d="M460.8,463c8.1-3.6,17.2-13,17.2-29.1v-3c0-28.3-18.7-37.3-48.9-37.3c-10.3,0-32.7,1-37.8,1.8
			c-8.1,1.4-10.5,3.4-10.5,12.7v95.4c0,1.6,1.5,3,3.1,3h29.2c1.6,0,3-1.4,3-3v-35.2h9.8l17.8,35.2c0.8,1.5,1.4,3,4,3H479
			c1.4,0,2.7-1,2.7-2.7c0-0.5-0.1-1.1-0.4-1.6L460.8,463z M442.8,434.1c0,4.1-2.9,7.9-10.3,7.9h-16.2v-18.9h16.2
			c7.6,0,10.3,2.8,10.3,7.9V434.1z"/>
	</g>
	<path class="st0" d="M418.3,352.8l-8.7-4.4c-6.3-3.6-9.1-5.9-9.1-9.5c0-5.3,3.8-7.4,13.1-7.4c3.7,0,8.6,0.2,14.5,0.6h0.2
		c1,0,1.7-0.6,1.7-1.5v-3.5c0-0.6-0.3-1.3-1.6-1.6c-2.9-0.4-9.4-1.1-14.7-1.1c-13.7,0-21.3,5.1-21.3,14.4c0,7,4.7,11.1,11.8,15.2
		l9.1,4.7c7.4,4.3,10,6.6,10,10.6c0,6.2-4.4,9.3-13.5,9.3c-3.8,0-9.9-0.3-13.9-0.6h-0.3c-1,0-1.7,0.6-1.7,1.5v3.2
		c0,1,0.3,1.4,1.8,1.7h0.1c3.8,0.6,8.1,1.2,14,1.2c20.4,0,22-12.5,22-16.3C431.7,362.8,428.1,358.3,418.3,352.8z"/>
	<g>
		<path class="st0" d="M131.9,426.6c-0.5,0-0.9-0.1-1.3-0.4c-10.7-6.7-15-18.6-12.2-34.6c1.7-9.8,10.3-23.7,19.5-31.8
			c3.8-3.3,7.2-6,10.3-8.1c-0.4-0.7-0.8-1.6-1.1-2.3c-0.5,0.9-1.2,1.7-1.9,2.4c-3.4,3.2-4.9,3.9-6.1,3.9c-0.1,0-0.2,0-0.3,0l0,0
			c-0.2,0.2-0.9,0.8-2.7,3.1l-0.3,0.3c-6.7,8-13,15.6-16.6,23.1c-5.2,10.8-4.2,21.7-3.1,27.3c0.1,0.7,0,1.5-0.5,2
			c-0.5,0.6-1.2,0.9-1.9,0.9c-0.7,0-1.3-0.3-1.8-0.8c-13.4-14.6-16.8-41,14.3-71.2l0.2-0.1c4.5-3.7,10.5-8,13.9-10.3
			c-0.1-0.3-0.1-0.7-0.1-1c-1.9,1.3-4.3,2.9-7.3,5c-18.2,14.3-28.7,29.4-31.2,44.7c-0.2,1.2-1.2,2.1-2.4,2.1c-0.9,0-1.7-0.5-2.2-1.3
			c-6.4-11.6,0.9-21.9,4-26.3c0.2-0.3,0.5-0.7,0.6-0.9l0.1-0.1c11.8-14.9,28.9-25,34.9-27.3c1.1-0.4,2.2-0.8,3.2-1
			c0-0.2,0-0.4,0-0.6c-9.9,3.4-26.5,15.2-35.7,25.3c-0.5,0.5-1.1,0.8-1.8,0.8c-1.3,0-2.4-1-2.5-2.4c-0.3-9,7.6-18.5,11.8-22.3
			c2.6-2.3,9.8-7.1,17.4-11.7c-3.2,1.6-6.5,3.3-9.1,4.8c-0.4,0.2-0.8,0.3-1.2,0.3c-0.9,0-1.8-0.5-2.2-1.3c-0.4-0.8-0.4-1.8,0.2-2.5
			c5.3-7.6,15.9-14.3,23.7-17c0.7-0.2,1.5-0.4,2.3-0.4c1.5,0,3.2,0.4,4.9,1.3l1.6-0.2c-0.1-0.1-0.1-0.1-0.2-0.2
			c-0.7-0.9-1-2.1-0.8-3.2c0.2-0.9,0.8-1.7,1.7-1.9c3.8-1.1,14.4-2.7,26.3-2.7c11.1,0,26.4,1.4,36.6,8c0.9,0.6,1.3,1.7,1,2.8
			s-1.3,1.8-2.4,1.8c-0.1,0-0.3,0-0.4,0c-2.1-0.4-4.4-0.7-7-0.7c-2.5,0-5.1,0.3-8.1,1c-0.2,0-0.4,0.1-0.5,0.1c-0.3,0-0.6,0-0.8-0.1
			c-1.2-0.4-2.4-0.8-3.5-1.1c0.5,0.5,0.7,1.1,0.7,1.8c-0.1,1-0.8,1.9-1.9,2.2c-6.3,1.6-13.5,4.5-17.8,7l2.6,2.6
			c11.5-8.2,22.5-12.3,32.9-12.3c11,0,18,4.6,21,6.6c5.9,3.8,9.4,12.9,9,23.2c-0.1,1.3-1.1,2.4-2.5,2.4c-0.4,0-0.9-0.1-1.3-0.4
			c-12.5-7.4-27.5-8.4-39.2-8.4c-2.6,0-5.2,0.1-7.4,0.1h-1c0.2,0.2,0.4,0.5,0.5,0.9l0,0c3.4-0.2,6.5-0.4,9.3-0.4
			c15.1,0,27.4,3.4,39.8,11c6.7,4.3,9.5,12.2,8.9,24.8c-0.1,1.3-1.2,2.4-2.4,2.4l0,0c-0.2,0-0.4,0-0.6-0.1l0,0
			c0.5,1.1,0.9,2.4,1.1,3.7c0.1,0.9-0.1,1.7-0.7,2.4c-0.5,0.5-1.1,0.8-1.8,0.8c-0.1,0-0.2,0-0.4,0c-3-0.5-4.1-0.6-6.9-1
			c-0.9-0.1-1.4-0.8-1.6-1.1c-2.2-3.2-14.9-15.5-36.5-16.8h-0.1l-3.6,2.7c0.4,0,0.8,0,1.2,0c7.8,0,22.4,1.3,31.7,9.7
			c0.7,0.7,1,1.7,0.6,2.7s-1.3,1.6-2.4,1.6c-0.1,0-0.2,0-0.2,0c-3.8-0.4-7.9-0.6-11.9-0.6c-6.2,0-11.9,0.5-15.2,1.2
			c-0.7,0.2-1.6,0.4-2.7,0.6c-11.6,2.3-38.9,7.8-49.6,44.6c-0.4,1.3-1.7,2.1-3.5,2.1c-2.1,0-4.3-1-4.6-3
			c-1.4-8.3-0.3-25.2,23.7-45.3l-1.1-2l-0.9,1c-1.2,1.3-2.6,2.6-4,4.1c-10.6,10.7-25.2,25.3-17.6,51.1c0.2,0.8,0.1,1.5-0.4,2.2
			C133.4,426.2,132.7,426.6,131.9,426.6z"/>
		<path d="M175.9,291.4c12.5,0,26.5,1.7,35.7,7.7c0.8,0.5,0.4,1.8-0.5,1.8c-0.1,0-0.1,0-0.2,0c-2.5-0.4-4.8-0.7-7.3-0.7
			s-5.1,0.3-8.4,1c-0.1,0-0.1,0-0.2,0c-0.1,0-0.2,0-0.3-0.1c-8-2.8-14.8-3.8-21.5-3.8c-3.4,0-6.8,0.2-10.4,0.6
			c-0.7,0.1-1.1,0.8-0.8,1.4l0.2,0.4c0.2,0.3,0.5,0.6,0.9,0.6l0,0c2.4-0.1,6.5-0.5,10.9-0.5c5.2,0,10.9,0.5,15.1,2.4
			c1,0.4,0.8,1.5-0.2,1.8c-6.6,1.7-14.3,4.8-18.8,7.5c-0.5,0.3-0.6,1-0.3,1.4l3.4,3.4c0.2,0.2,0.5,0.4,0.8,0.4
			c0.2,0,0.4-0.1,0.6-0.2c13.1-9.4,23.9-12.3,32.4-12.3c10.4,0,17.3,4.4,20.2,6.3c5.9,3.8,8.7,12.9,8.3,21.8c0,0.6-0.5,0.9-1,0.9
			c-0.2,0-0.3,0-0.5-0.1c-12.6-7.5-27.8-8.6-40-8.6c-3.6,0-6.9,0.1-9.9,0.1c-0.9,0-1.3,1.1-0.6,1.7l0.9,0.7c0.1,0.1,0.2,0.3,0.3,0.4
			l0.1,0.4c0.1,0.4,0.5,0.6,0.9,0.6c0,0,0,0,0.1,0c3.2-0.2,6.4-0.4,9.6-0.4c12.7,0,25.2,2.3,39.1,10.8c5.6,3.6,8.8,10.3,8.2,23.5
			c0,0.5-0.5,0.9-0.9,0.9c-0.1,0-0.1,0-0.2,0c-3.3-0.8-6.1-8.9-13.5-11.6c-0.1,0-0.2-0.1-0.3-0.1c-0.8,0-1.3,1.1-0.6,1.7
			c4.5,3.9,12.5,7.6,13.6,15.4c0.1,0.7-0.3,1.5-0.9,1.5h-0.1c-3.1-0.5-4.2-0.6-6.9-1c-0.2,0-0.4-0.2-0.5-0.4
			c-1.7-2.5-14.3-16.1-37.7-17.4c-0.2,0-0.4-0.1-0.5-0.1l-5.5,4.1c-0.8,0.6-0.4,1.7,0.6,1.7l0,0c0.9,0,1.8-0.1,2.8-0.1
			c9.8,0,22.6,2,30.7,9.3c0.7,0.6,0.2,1.7-0.7,1.7H222c-4-0.4-8.1-0.6-12-0.6c-6.4,0-12.2,0.5-15.5,1.3c-8.6,2.1-41.4,5.1-53.4,46.2
			c-0.2,0.7-1.1,1.1-2.1,1.1c-1.4,0-3-0.7-3.2-1.8c-1.4-7.9-0.3-24.3,23.5-44.1c0.4-0.3,0.5-0.8,0.2-1.2c-0.5-0.9-1-1.9-1.7-3.1
			c-0.2-0.3-0.5-0.5-0.9-0.5c-0.3,0-0.5,0.1-0.7,0.3c-0.5,0.5-0.9,1-1.4,1.5c-10.2,11-30.8,26.5-21.9,56.6c0.2,0.7-0.3,1.3-0.9,1.3
			c-0.2,0-0.3,0-0.5-0.1c-10.9-6.7-14-18.8-11.5-33.1c1.5-9,9.6-22.8,19-30.9c4.1-3.6,7.6-6.3,10.5-8.3c0.4-0.3,0.5-0.8,0.3-1.2
			c-0.6-1.1-1.2-2.4-1.8-3.7c-0.2-0.4-0.5-0.6-0.9-0.6c-0.3,0-0.7,0.2-0.8,0.5c-0.5,1.1-1.2,2.1-2.1,2.9c-3.3,3.2-4.4,3.5-5.1,3.5
			c-0.2,0-0.3,0-0.4,0c-0.6,0-1.2,0.3-3.8,3.7c-6.8,8.2-13.3,15.9-17.1,23.7c-4.8,10-4.7,20.6-3.2,28.2c0.1,0.7-0.4,1.2-1,1.2
			c-0.2,0-0.5-0.1-0.7-0.3c-10.5-11.4-19.2-36.6,14.2-69.1c0,0,0,0,0.1-0.1c4.5-3.8,10.5-8,14-10.5c0.3-0.2,0.5-0.6,0.4-1
			c-0.2-1.2-0.4-2.5-0.4-3.8c-1.6,1.1-4.5,3.1-9.5,6.4c0,0,0,0-0.1,0c-25.3,19.9-30.3,36.9-31.7,45.7c-0.1,0.5-0.5,0.8-1,0.8
			c-0.3,0-0.7-0.2-0.9-0.5c-6.4-11.7,2-21.9,4.6-25.7c0,0,0,0,0-0.1c11.9-15,28.7-24.7,34.2-26.8c1.4-0.5,2.5-0.8,3.4-1
			c0.5-0.1,0.8-0.5,0.8-1c0-0.7,0-1.3,0-1.7c0-0.6-0.5-1-1-1c-0.1,0-0.3,0-0.4,0.1c-0.2,0.1-0.3,0.1-0.5,0.2
			c-10.4,3.5-27.4,15.8-36.4,25.7c-0.2,0.2-0.5,0.3-0.7,0.3c-0.5,0-1-0.4-1-0.9c-0.2-8.3,7.3-17.5,11.3-21.1
			c3.9-3.5,19.3-13.2,29.4-18.6c0.3-0.1,0.4-0.4,0.5-0.7c0.1-0.5,0.2-0.9,0.3-1.4c-0.5,0.2-0.9,0.4-1.3,0.5
			c-2.9,0.9-15.1,6.7-22.3,10.8c-0.2,0.1-0.3,0.1-0.5,0.1c-0.7,0-1.3-0.8-0.8-1.5c4.9-7.1,15.1-13.7,23-16.4
			c0.6-0.2,1.2-0.3,1.8-0.3c1.6,0,3.1,0.6,4.4,1.2c0.1,0.1,0.3,0.1,0.4,0.1h0.1l7.3-1l0.1-0.2c-5.3-0.3-5.5-2.7-5.3-3.8
			c0.1-0.4,0.3-0.6,0.7-0.7C153.4,293.1,163.9,291.4,175.9,291.4 M175.9,288.4v3V288.4c-12,0-22.9,1.6-26.7,2.7
			c-1.5,0.4-2.5,1.6-2.8,3.1c-0.1,0.6-0.1,1.3,0,1.9c-1.4-0.5-2.7-0.8-4-0.8c-1,0-1.9,0.1-2.8,0.4l0,0l0,0c-8,2.7-19,9.7-24.5,17.6
			c-0.8,1.2-0.9,2.8-0.3,4.1c0.4,0.7,0.9,1.2,1.5,1.6c-2.7,1.8-4.8,3.4-6,4.5c-4.4,3.9-12.5,13.9-12.3,23.4c0,1.7,1.1,3.1,2.7,3.6
			c-0.1,0.2-0.3,0.3-0.4,0.5c-0.1,0.1-0.1,0.2-0.2,0.2c-0.2,0.3-0.4,0.6-0.6,0.9c-3.3,4.6-10.9,15.4-4.1,27.9c0.7,1.3,2,2.1,3.5,2.1
			c0.6,0,1.2-0.1,1.7-0.4c-0.1,0.7-0.1,1.3-0.2,2c-0.8,14.6,6,24.3,10.2,28.8c0.8,0.8,1.8,1.3,2.9,1.3c1.2,0,2.3-0.5,3.1-1.5
			c0.4-0.5,0.7-1,0.8-1.6c2,7.1,6.1,12.7,12.4,16.6c0.6,0.4,1.3,0.6,2.1,0.6c1.2,0,2.4-0.6,3.2-1.6s1-2.3,0.6-3.5
			c-0.5-1.8-1-3.6-1.3-5.3c1.2,0.9,2.8,1.4,4.4,1.4c2.5,0,4.4-1.2,4.9-3.2c10.5-35.9,37.1-41.3,48.5-43.6c1.1-0.2,2-0.4,2.8-0.6
			c3.1-0.8,8.7-1.2,14.8-1.2c3.9,0,8,0.2,11.7,0.5c0.1,0,0.3,0,0.4,0c1.7,0,3.2-1,3.8-2.6c0.2-0.6,0.3-1.3,0.2-2
			c2,1.7,3.3,3.2,3.9,4c0.7,1,1.6,1.6,2.6,1.7c2.8,0.4,3.8,0.5,6.9,1c0.2,0,0.4,0,0.6,0c1.1,0,2.2-0.5,2.9-1.3c0.8-1,1.2-2.3,1-3.6
			c-0.1-0.8-0.3-1.5-0.5-2.2c1.4-0.6,2.4-1.9,2.5-3.5c0.7-13.2-2.4-21.5-9.6-26.1l0,0l0,0c-0.2-0.1-0.3-0.2-0.5-0.3
			c1.6-0.5,2.8-1.9,2.9-3.7c0.5-10.9-3.2-20.3-9.6-24.5c-2.2-1.4-7.1-4.6-14.3-6.1c0.2-0.3,0.3-0.6,0.4-0.9c0.5-1.7-0.2-3.5-1.7-4.5
			C202.8,289.9,187.1,288.5,175.9,288.4L175.9,288.4z M174,312.8c0.8-0.4,1.6-0.8,2.4-1.2c-0.7,0.5-1.4,1-2.2,1.5L174,312.8
			L174,312.8z"/>
	</g>
	<g>
		<path class="st2" d="M165.2,384.9c-1.9,0-3.4-0.5-4.4-1.5c-1.5-1.5-1.4-3.7-1.3-5.3c0-0.4,0-0.7,0-1c-0.1-0.9-0.1-2.3,0-4.5
			c0-4.8,0-12.8-0.5-25.1v-0.9l0.7-0.5c0.6-0.4,5.7-3.8,8.9-3.8c1.3,0,2.1,0.6,2.5,1.1c0.5,0.6,2.6,3.1,5.2,6.2
			c6.2,7.3,14.6,17.4,16.2,19.6c1.3,1.8,1.2,3.3,1,4.3c-0.6,2.2-2.8,3.4-4,3.9c-0.3,0.1-7.2,3.1-14.1,4.9
			C170.9,384.1,167.6,384.9,165.2,384.9L165.2,384.9z"/>
		<path d="M168.5,343.9c0.6,0,1,0.1,1.3,0.5c1.7,2.1,19.1,22.6,21.3,25.8c2.2,3.2-0.5,5.2-2.4,6c-1.9,0.8-8.1,3.3-14,4.9
			c-4.5,1.7-7.5,2.4-9.5,2.4c-5.3,0-4-4.4-4.1-6.4c-0.2-2.8,0.3-11.7-0.6-29.6C160.5,347.4,165.7,343.9,168.5,343.9 M168.5,340.9
			c-3.4,0-8.3,3.1-9.7,4l-1.4,0.9l0.1,1.7c0.6,12.3,0.6,20.3,0.5,25.1c0,2.2,0,3.6,0,4.6c0,0.2,0,0.5,0,0.9
			c-0.1,1.6-0.2,4.3,1.7,6.4c1.3,1.3,3.1,2,5.4,2c2.6,0,6-0.8,10.5-2.5c7.1-1.9,14-4.9,14.3-5c1.5-0.6,4.1-2.1,4.9-4.9
			c0.4-1.3,0.4-3.3-1.2-5.6c-1.5-2.1-8.5-10.5-16.3-19.7c-2.6-3.1-4.7-5.6-5.2-6.2C171.6,341.9,170.5,340.9,168.5,340.9L168.5,340.9
			z"/>
	</g>
	<g>
		<path class="st2" d="M149.5,368.7c-6.2,0-12.7-3.2-16.9-8.4c-4-4.9-5.5-10.8-4.2-16.7l0.3-1.2c1.8-8.5,7.2-34.5,15.5-53.6l0.6-1.4
			l1.4,0.6c8.8,4.1,45.5,35.1,48.7,38.3c5,5,6.4,12,3.6,18.7c-3,7.2-9.7,11.8-17.3,11.8l0,0c-4.6,0-9.2-1.7-13.7-5
			C165,362.5,158.4,368.7,149.5,368.7z"/>
		<path d="M145.5,289.4c8.7,4,45.3,35.1,48.2,38c10.4,10.4,1.5,27.9-12.6,27.9c-4.5,0-9.5-1.8-14.6-6.2c-2.2,13-9.5,18.1-17,18.1
			c-10.9,0-22.3-10.7-19.7-23.3C131.3,337.2,136.9,309.4,145.5,289.4 M144,285.4l-1.2,2.8c-8.3,19.3-13.8,45.3-15.6,53.9l-0.3,1.2
			c-1.3,6.3,0.3,12.7,4.5,18c4.5,5.5,11.4,9,18.1,9c9,0,15.8-5.9,18.9-16c4.1,2.6,8.5,4,12.8,4c8.1,0,15.5-5,18.7-12.8
			c3-7.2,1.5-14.9-3.9-20.3c-3.3-3.3-39.9-34.3-49.1-38.6L144,285.4L144,285.4z"/>
	</g>
</g>
</svg>
